# xmcd CD database file
#
# Track frame offsets:
#	150
#	21870
#	54460
#	76967
#	102265
#	125030
#	159677
#	187245
#	219110
#	247815
#	276352
#	298550
#	314417
#
# Disc length: 4435 seconds
#
# Revision: 1
# Processed by: cddbd v1.5.2PL0 Copyright (c) Steve Scherf et al.
# Submitted via: CDex 1.51
#
DISCID=bb11510d
DTITLE=The Stone Roses - The Remixes
DYEAR=2000
DGENRE=Rock
TTITLE0=Shoot You Down (The Soul Hooligan Remix)
TTITLE1=Fools Gold (Top Won Mix)
TTITLE2=Made Of Stone (808 State Mix)
TTITLE3=Waterfall (12" Remix)
TTITLE4=One Love (Utah Saints Remix)
TTITLE5=I Wanna Be Adored (Bloody Valentine Edit)
TTITLE6=Fools Gold (Grooverider's Mix)
TTITLE7=I Am The Resurrection (Jon Carter Remix)
TTITLE8=Waterfall (Justin Robertson's Mix)
TTITLE9=She Bangs The Drums (Elephant Remix)
TTITLE10=Elizabeth My Dear (Kinobe Remix)
TTITLE11=Elephant Stone (Mint Royale Remix)
TTITLE12=She Bangs The Drums (Kiss My Arse Mix)
EXTD=YEAR: 2000
EXTT0=
EXTT1=
EXTT2=
EXTT3=
EXTT4=
EXTT5=
EXTT6=
EXTT7=
EXTT8=
EXTT9=
EXTT10=
EXTT11=
EXTT12=
PLAYORDER=
